<svg xmlns="http://www.w3.org/2000/svg" xmlns:xlink="http://www.w3.org/1999/xlink" viewBox="0 0 608.59 813.01"><defs><style>.cls-1{isolation:isolate;}.cls-2{mix-blend-mode:multiply;opacity:0.15;}.cls-3{fill:#fff;}.cls-4{fill:#f3f3f3;}.cls-5{fill:#e7e7e7;}.cls-6{fill:#dbdbdb;}.cls-7{fill:#cecece;}.cls-8{fill:#c2c2c2;}.cls-9{fill:#b6b6b6;}.cls-10{fill:#aaa;}.cls-11{fill:#9e9e9e;}.cls-12{fill:#929292;}.cls-13{fill:#868686;}.cls-14{fill:#797979;}.cls-15{fill:#6d6d6d;}.cls-16{fill:#616161;}.cls-17{fill:#555;}.cls-18{fill:#494949;}.cls-19{fill:#3d3d3d;}.cls-20{fill:#313131;}.cls-21{fill:#242424;}.cls-22{fill:#181818;}.cls-23{fill:#0c0c0c;}.cls-24{fill:url(#New_Gradient_Swatch_1);}.cls-25{fill:url(#linear-gradient);}.cls-26{fill:url(#linear-gradient-2);}.cls-27{fill:url(#linear-gradient-3);}.cls-28{fill:url(#New_Gradient_Swatch_1-2);}.cls-29{font-size:91px;fill:#5a5c63;font-family:Rubik-Medium, Rubik Medium;font-weight:500;}</style><linearGradient id="New_Gradient_Swatch_1" x1="953.44" y1="301.69" x2="497.67" y2="868.45" gradientUnits="userSpaceOnUse"><stop offset="0" stop-color="#fbb03b"/><stop offset="0.51" stop-color="#b48bb9"/><stop offset="1" stop-color="#bd619d"/></linearGradient><linearGradient id="linear-gradient" x1="759.45" y1="145.69" x2="303.67" y2="712.44" gradientUnits="userSpaceOnUse"><stop offset="0.17" stop-color="#fbb03b"/><stop offset="0.51" stop-color="#b48bb9"/><stop offset="1" stop-color="#bd619d"/></linearGradient><linearGradient id="linear-gradient-2" x1="689.84" y1="89.7" x2="234.06" y2="656.45" gradientTransform="translate(701.47 1022.74) rotate(-180)" gradientUnits="userSpaceOnUse"><stop offset="0.13" stop-color="#fbb03b"/><stop offset="0.51" stop-color="#b48bb9"/><stop offset="1" stop-color="#bd619d"/></linearGradient><linearGradient id="linear-gradient-3" x1="833.03" y1="204.86" x2="377.25" y2="771.61" gradientUnits="userSpaceOnUse"><stop offset="0.08" stop-color="#fbb03b"/><stop offset="0.51" stop-color="#b48bb9"/><stop offset="1" stop-color="#bd619d"/></linearGradient><linearGradient id="New_Gradient_Swatch_1-2" x1="1010.83" y1="347.84" x2="555.05" y2="914.6" gradientTransform="translate(619.14 -472) rotate(45)" xlink:href="#New_Gradient_Swatch_1"/></defs><g class="cls-1"><g id="Graphic_Element" data-name="Graphic Element"><g class="cls-2"><path class="cls-3" d="M811.91,637h0a27.32,27.32,0,0,1-27.32-27.32V495.6a27.32,27.32,0,0,1,27.32-27.32h0a27.32,27.32,0,0,1,27.32,27.32V609.71A27.32,27.32,0,0,1,811.91,637Z" transform="translate(-323.41 -192.08)"/><path class="cls-3" d="M492.45,686h0a27.32,27.32,0,0,0,27.32-27.32V446.59a27.32,27.32,0,0,0-27.32-27.32h0a27.32,27.32,0,0,0-27.32,27.32V658.72A27.32,27.32,0,0,0,492.45,686Z" transform="translate(-323.41 -192.08)"/><rect class="cls-3" x="350.5" y="495.9" width="54.64" height="113.5" rx="27.32" transform="translate(432.22 913.23) rotate(180)"/><path class="cls-3" d="M674.36,624.89a18.94,18.94,0,0,1-18.94,18.94h0a18.94,18.94,0,0,1-18.95-18.94V473.74a18.94,18.94,0,0,1,18.95-18.94h0a18.94,18.94,0,0,1,18.94,18.94Zm28.33-299H694.2A23.07,23.07,0,0,0,671.12,349V393.2a21.4,21.4,0,0,1-21.41,21.41h0a21.41,21.41,0,0,1-21.42-21.41V261.3c0-14.92-11.69-27.55-26.59-27.93a27.32,27.32,0,0,0-28.05,27.31V844c0,14.91,11.69,27.54,26.6,27.93a27.31,27.31,0,0,0,28-27.31V712.11a21.42,21.42,0,0,1,21.42-21.42h0a21.41,21.41,0,0,1,21.41,21.42v44.25a23.07,23.07,0,0,0,23.08,23.07h8.49a23.07,23.07,0,0,0,23.07-23.07V349A23.07,23.07,0,0,0,702.69,325.88Z" transform="translate(-323.41 -192.08)"/><circle class="cls-3" cx="583" cy="360.58" r="25.59"/><path class="cls-4" d="M810.81,635.27h0A27.32,27.32,0,0,1,783.49,608V493.84a27.32,27.32,0,0,1,27.32-27.32h0a27.32,27.32,0,0,1,27.32,27.32V608A27.32,27.32,0,0,1,810.81,635.27Z" transform="translate(-323.41 -192.08)"/><path class="cls-4" d="M491.35,684.27h0A27.32,27.32,0,0,0,518.67,657V444.83a27.32,27.32,0,0,0-27.32-27.32h0A27.32,27.32,0,0,0,464,444.83V657A27.32,27.32,0,0,0,491.35,684.27Z" transform="translate(-323.41 -192.08)"/><rect class="cls-4" x="25.98" y="302.07" width="54.64" height="113.5" rx="27.32"/><path class="cls-4" d="M673.26,623.13a18.94,18.94,0,0,1-18.94,18.94h0a18.94,18.94,0,0,1-19-18.94V472a18.94,18.94,0,0,1,19-18.94h0A18.94,18.94,0,0,1,673.26,472Zm28.33-299H693.1A23.08,23.08,0,0,0,670,347.19v44.25a21.42,21.42,0,0,1-21.41,21.41h0a21.42,21.42,0,0,1-21.42-21.41V259.53c0-14.91-11.69-27.54-26.6-27.92a27.32,27.32,0,0,0-28,27.31V842.25c0,14.91,11.69,27.54,26.6,27.93a27.33,27.33,0,0,0,28-27.31V710.35a21.42,21.42,0,0,1,21.42-21.42h0A21.42,21.42,0,0,1,670,710.35V754.6a23.07,23.07,0,0,0,23.08,23.07h8.49a23.07,23.07,0,0,0,23.07-23.07V347.19A23.08,23.08,0,0,0,701.59,324.11Z" transform="translate(-323.41 -192.08)"/><circle class="cls-4" cx="581.9" cy="358.82" r="25.59"/><path class="cls-5" d="M809.71,633.51h0a27.32,27.32,0,0,1-27.32-27.32V492.08a27.32,27.32,0,0,1,27.32-27.32h0A27.32,27.32,0,0,1,837,492.08V606.19A27.33,27.33,0,0,1,809.71,633.51Z" transform="translate(-323.41 -192.08)"/><path class="cls-5" d="M490.25,682.51h0a27.32,27.32,0,0,0,27.32-27.32V443.07a27.32,27.32,0,0,0-27.32-27.32h0a27.32,27.32,0,0,0-27.32,27.32V655.19A27.32,27.32,0,0,0,490.25,682.51Z" transform="translate(-323.41 -192.08)"/><rect class="cls-5" x="24.88" y="300.31" width="54.64" height="113.5" rx="27.32"/><path class="cls-5" d="M672.16,621.37a18.94,18.94,0,0,1-18.94,18.94h0a18.94,18.94,0,0,1-19-18.94V470.22a18.94,18.94,0,0,1,19-18.94h0a18.94,18.94,0,0,1,18.94,18.94Zm28.33-299H692a23.07,23.07,0,0,0-23.07,23.08v44.25a21.42,21.42,0,0,1-21.41,21.41h0a21.42,21.42,0,0,1-21.42-21.41V257.77c0-14.91-11.69-27.54-26.6-27.92a27.32,27.32,0,0,0-28,27.31V840.49c0,14.91,11.69,27.54,26.6,27.93a27.33,27.33,0,0,0,28-27.32V708.59a21.42,21.42,0,0,1,21.42-21.42h0a21.42,21.42,0,0,1,21.41,21.42v44.24A23.07,23.07,0,0,0,692,775.91h8.5a23.07,23.07,0,0,0,23.07-23.08V345.43A23.07,23.07,0,0,0,700.49,322.35Z" transform="translate(-323.41 -192.08)"/><circle class="cls-5" cx="580.8" cy="357.06" r="25.59"/><path class="cls-6" d="M808.6,631.74h0a27.32,27.32,0,0,1-27.32-27.32V490.31A27.33,27.33,0,0,1,808.6,463h0a27.32,27.32,0,0,1,27.32,27.32V604.42A27.32,27.32,0,0,1,808.6,631.74Z" transform="translate(-323.41 -192.08)"/><path class="cls-6" d="M489.15,680.75h0a27.32,27.32,0,0,0,27.32-27.32V441.31A27.32,27.32,0,0,0,489.15,414h0a27.32,27.32,0,0,0-27.32,27.32V653.43A27.32,27.32,0,0,0,489.15,680.75Z" transform="translate(-323.41 -192.08)"/><rect class="cls-6" x="23.78" y="298.54" width="54.64" height="113.5" rx="27.32"/><path class="cls-6" d="M671.06,619.6a18.94,18.94,0,0,1-18.95,18.95h0a18.94,18.94,0,0,1-18.94-18.95V468.46a19,19,0,0,1,18.94-18.95h0a19,19,0,0,1,18.95,18.95Zm28.33-299h-8.5a23.07,23.07,0,0,0-23.07,23.08v44.24a21.42,21.42,0,0,1-21.41,21.42h0A21.42,21.42,0,0,1,625,387.91V256c0-14.91-11.69-27.54-26.6-27.93a27.33,27.33,0,0,0-28,27.32V838.73c0,14.91,11.69,27.54,26.6,27.92a27.31,27.31,0,0,0,28-27.31V706.82a21.42,21.42,0,0,1,21.42-21.41h0a21.42,21.42,0,0,1,21.41,21.41v44.25a23.07,23.07,0,0,0,23.07,23.08h8.5a23.07,23.07,0,0,0,23.07-23.08V343.67A23.07,23.07,0,0,0,699.39,320.59Z" transform="translate(-323.41 -192.08)"/><circle class="cls-6" cx="579.69" cy="355.29" r="25.59"/><path class="cls-7" d="M807.5,630h0a27.32,27.32,0,0,1-27.32-27.32V488.55a27.32,27.32,0,0,1,27.32-27.32h0a27.32,27.32,0,0,1,27.32,27.32V602.66A27.32,27.32,0,0,1,807.5,630Z" transform="translate(-323.41 -192.08)"/><path class="cls-7" d="M488.05,679h0a27.32,27.32,0,0,0,27.32-27.32V439.54a27.32,27.32,0,0,0-27.32-27.31h0a27.32,27.32,0,0,0-27.32,27.31V651.67A27.32,27.32,0,0,0,488.05,679Z" transform="translate(-323.41 -192.08)"/><rect class="cls-7" x="22.68" y="296.78" width="54.64" height="113.5" rx="27.32"/><path class="cls-7" d="M670,617.84a18.94,18.94,0,0,1-19,18.95h0a18.94,18.94,0,0,1-18.94-18.95V466.7A18.94,18.94,0,0,1,651,447.75h0a18.94,18.94,0,0,1,19,18.95Zm28.33-299h-8.5a23.07,23.07,0,0,0-23.07,23.07v44.25a21.42,21.42,0,0,1-21.42,21.42h0a21.42,21.42,0,0,1-21.41-21.42V254.25c0-14.91-11.69-27.54-26.6-27.93a27.33,27.33,0,0,0-28,27.31V837c0,14.91,11.69,27.54,26.6,27.92a27.31,27.31,0,0,0,28-27.31V705.06a21.42,21.42,0,0,1,21.41-21.41h0a21.42,21.42,0,0,1,21.42,21.41v44.25a23.07,23.07,0,0,0,23.07,23.07h8.5a23.07,23.07,0,0,0,23.07-23.07V341.9A23.07,23.07,0,0,0,698.29,318.83Z" transform="translate(-323.41 -192.08)"/><circle class="cls-7" cx="578.59" cy="353.53" r="25.59"/><path class="cls-8" d="M806.4,628.22h0a27.32,27.32,0,0,1-27.32-27.32V486.79a27.32,27.32,0,0,1,27.32-27.32h0a27.32,27.32,0,0,1,27.32,27.32V600.9A27.32,27.32,0,0,1,806.4,628.22Z" transform="translate(-323.41 -192.08)"/><path class="cls-8" d="M487,677.23h0a27.32,27.32,0,0,0,27.32-27.32V437.78A27.32,27.32,0,0,0,487,410.46h0a27.32,27.32,0,0,0-27.32,27.32V649.91A27.32,27.32,0,0,0,487,677.23Z" transform="translate(-323.41 -192.08)"/><rect class="cls-8" x="21.58" y="295.02" width="54.64" height="113.5" rx="27.32"/><path class="cls-8" d="M668.86,616.08a19,19,0,0,1-19,18.95h0A19,19,0,0,1,631,616.08V464.94A18.94,18.94,0,0,1,649.91,446h0a18.94,18.94,0,0,1,19,18.95Zm28.33-299h-8.5a23.07,23.07,0,0,0-23.07,23.07v44.25a21.42,21.42,0,0,1-21.42,21.42h0a21.42,21.42,0,0,1-21.41-21.42V252.49c0-14.91-11.69-27.54-26.6-27.93a27.31,27.31,0,0,0-28,27.31V835.2c0,14.92,11.69,27.55,26.6,27.93a27.31,27.31,0,0,0,28-27.31V703.3a21.41,21.41,0,0,1,21.41-21.41h0a21.41,21.41,0,0,1,21.42,21.41v44.25a23.07,23.07,0,0,0,23.07,23.07h8.5a23.07,23.07,0,0,0,23.07-23.07V340.14A23.07,23.07,0,0,0,697.19,317.07Z" transform="translate(-323.41 -192.08)"/><circle class="cls-8" cx="577.49" cy="351.77" r="25.59"/><path class="cls-9" d="M805.3,626.46h0A27.32,27.32,0,0,1,778,599.14V485a27.32,27.32,0,0,1,27.32-27.32h0A27.32,27.32,0,0,1,832.62,485V599.14A27.32,27.32,0,0,1,805.3,626.46Z" transform="translate(-323.41 -192.08)"/><path class="cls-9" d="M485.85,675.47h0a27.32,27.32,0,0,0,27.32-27.32V436a27.32,27.32,0,0,0-27.32-27.32h0A27.32,27.32,0,0,0,458.53,436V648.15A27.32,27.32,0,0,0,485.85,675.47Z" transform="translate(-323.41 -192.08)"/><rect class="cls-9" x="20.48" y="293.26" width="54.64" height="113.5" rx="27.32"/><path class="cls-9" d="M667.76,614.32a19,19,0,0,1-19,18.95h0a19,19,0,0,1-18.94-18.95V463.18a18.94,18.94,0,0,1,18.94-18.95h0a18.94,18.94,0,0,1,19,18.95Zm28.32-299h-8.49a23.07,23.07,0,0,0-23.07,23.07v44.25A21.41,21.41,0,0,1,643.1,404h0a21.41,21.41,0,0,1-21.41-21.41V250.73c0-14.92-11.69-27.55-26.6-27.93a27.31,27.31,0,0,0-28,27.31V833.44c0,14.92,11.69,27.55,26.6,27.93a27.31,27.31,0,0,0,28-27.31V701.54a21.41,21.41,0,0,1,21.41-21.41h0a21.41,21.41,0,0,1,21.42,21.41v44.25a23.07,23.07,0,0,0,23.07,23.07h8.49a23.07,23.07,0,0,0,23.08-23.07V338.38A23.07,23.07,0,0,0,696.08,315.31Z" transform="translate(-323.41 -192.08)"/><circle class="cls-9" cx="576.39" cy="350.01" r="25.59"/><path class="cls-10" d="M804.2,624.7h0a27.32,27.32,0,0,1-27.32-27.32V483.27A27.32,27.32,0,0,1,804.2,456h0a27.32,27.32,0,0,1,27.32,27.32V597.38A27.32,27.32,0,0,1,804.2,624.7Z" transform="translate(-323.41 -192.08)"/><path class="cls-10" d="M484.75,673.71h0a27.33,27.33,0,0,0,27.32-27.32V434.26a27.32,27.32,0,0,0-27.32-27.32h0a27.32,27.32,0,0,0-27.32,27.32V646.39A27.32,27.32,0,0,0,484.75,673.71Z" transform="translate(-323.41 -192.08)"/><rect class="cls-10" x="19.38" y="291.5" width="54.64" height="113.5" rx="27.32"/><path class="cls-10" d="M666.66,612.56a19,19,0,0,1-18.95,18.94h0a18.94,18.94,0,0,1-18.94-18.94V461.41a18.94,18.94,0,0,1,18.94-18.94h0a19,19,0,0,1,18.95,18.94Zm28.32-299h-8.49a23.07,23.07,0,0,0-23.07,23.07v44.25A21.41,21.41,0,0,1,642,402.28h0a21.41,21.41,0,0,1-21.41-21.41V249c0-14.91-11.69-27.54-26.6-27.92a27.31,27.31,0,0,0-28,27.31V831.68c0,14.91,11.69,27.54,26.6,27.93a27.32,27.32,0,0,0,28-27.31V699.78A21.42,21.42,0,0,1,642,678.36h0a21.42,21.42,0,0,1,21.42,21.42V744a23.07,23.07,0,0,0,23.07,23.07H695A23.07,23.07,0,0,0,718.06,744V336.62A23.07,23.07,0,0,0,695,313.55Z" transform="translate(-323.41 -192.08)"/><circle class="cls-10" cx="898.7" cy="540.32" r="25.59" transform="translate(-157.06 1098.77) rotate(-76.72)"/><path class="cls-11" d="M803.1,622.94h0a27.32,27.32,0,0,1-27.32-27.32V481.51a27.32,27.32,0,0,1,27.32-27.32h0a27.32,27.32,0,0,1,27.32,27.32V595.62A27.32,27.32,0,0,1,803.1,622.94Z" transform="translate(-323.41 -192.08)"/><path class="cls-11" d="M483.64,671.94h0A27.32,27.32,0,0,0,511,644.62V432.5a27.32,27.32,0,0,0-27.32-27.32h0a27.32,27.32,0,0,0-27.32,27.32V644.62A27.32,27.32,0,0,0,483.64,671.94Z" transform="translate(-323.41 -192.08)"/><rect class="cls-11" x="18.28" y="289.74" width="54.64" height="113.5" rx="27.32"/><path class="cls-11" d="M665.56,610.8a19,19,0,0,1-18.95,18.94h0a19,19,0,0,1-19-18.94V459.65a19,19,0,0,1,19-18.94h0a19,19,0,0,1,18.95,18.94Zm28.32-299h-8.49a23.08,23.08,0,0,0-23.07,23.08v44.25a21.42,21.42,0,0,1-21.42,21.41h0a21.41,21.41,0,0,1-21.41-21.41V247.2c0-14.91-11.69-27.54-26.6-27.92a27.31,27.31,0,0,0-28,27.31V829.92c0,14.91,11.69,27.54,26.6,27.93a27.33,27.33,0,0,0,28-27.31V698A21.41,21.41,0,0,1,640.9,676.6h0A21.42,21.42,0,0,1,662.32,698v44.25a23.07,23.07,0,0,0,23.07,23.07h8.49A23.07,23.07,0,0,0,717,742.27V334.86A23.08,23.08,0,0,0,693.88,311.78Z" transform="translate(-323.41 -192.08)"/><circle class="cls-11" cx="574.19" cy="346.49" r="25.59"/><path class="cls-12" d="M802,621.18h0a27.32,27.32,0,0,1-27.32-27.32V479.75A27.32,27.32,0,0,1,802,452.43h0a27.32,27.32,0,0,1,27.32,27.32V593.86A27.32,27.32,0,0,1,802,621.18Z" transform="translate(-323.41 -192.08)"/><path class="cls-12" d="M482.54,670.18h0a27.32,27.32,0,0,0,27.32-27.32V430.74a27.32,27.32,0,0,0-27.32-27.32h0a27.32,27.32,0,0,0-27.32,27.32V642.86A27.32,27.32,0,0,0,482.54,670.18Z" transform="translate(-323.41 -192.08)"/><rect class="cls-12" x="17.17" y="287.98" width="54.64" height="113.5" rx="27.32"/><path class="cls-12" d="M664.46,609a19,19,0,0,1-19,19h0a19,19,0,0,1-19-18.94V457.89a19,19,0,0,1,19-18.94h0a19,19,0,0,1,19,18.94Zm28.32-299h-8.49a23.08,23.08,0,0,0-23.08,23.08v44.25a21.41,21.41,0,0,1-21.41,21.41h0a21.41,21.41,0,0,1-21.41-21.41V245.44c0-14.91-11.7-27.54-26.6-27.92a27.31,27.31,0,0,0-28,27.31V828.16c0,14.91,11.69,27.54,26.59,27.93a27.34,27.34,0,0,0,28-27.32V696.26a21.41,21.41,0,0,1,21.41-21.42h0a21.41,21.41,0,0,1,21.41,21.42V740.5a23.08,23.08,0,0,0,23.08,23.08h8.49a23.07,23.07,0,0,0,23.07-23.08V333.1A23.07,23.07,0,0,0,692.78,310Z" transform="translate(-323.41 -192.08)"/><circle class="cls-12" cx="573.09" cy="344.73" r="25.59"/><path class="cls-13" d="M800.9,619.41h0a27.32,27.32,0,0,1-27.32-27.32V478a27.32,27.32,0,0,1,27.32-27.32h0A27.32,27.32,0,0,1,828.22,478V592.09A27.32,27.32,0,0,1,800.9,619.41Z" transform="translate(-323.41 -192.08)"/><path class="cls-13" d="M481.44,668.42h0a27.32,27.32,0,0,0,27.32-27.32V429a27.32,27.32,0,0,0-27.32-27.32h0A27.32,27.32,0,0,0,454.12,429V641.1A27.32,27.32,0,0,0,481.44,668.42Z" transform="translate(-323.41 -192.08)"/><rect class="cls-13" x="16.07" y="286.21" width="54.64" height="113.5" rx="27.32"/><path class="cls-13" d="M663.35,607.27a18.94,18.94,0,0,1-18.94,19h0a19,19,0,0,1-18.95-19V456.13a19,19,0,0,1,18.95-18.95h0a19,19,0,0,1,18.94,18.95Zm28.33-299h-8.49a23.08,23.08,0,0,0-23.08,23.08v44.24A21.41,21.41,0,0,1,638.7,397h0a21.42,21.42,0,0,1-21.42-21.42V243.68c0-14.91-11.69-27.54-26.59-27.93a27.34,27.34,0,0,0-28.05,27.32V826.4c0,14.91,11.7,27.54,26.6,27.92a27.31,27.31,0,0,0,28-27.31V694.49a21.42,21.42,0,0,1,21.42-21.41h0a21.41,21.41,0,0,1,21.41,21.41v44.25a23.08,23.08,0,0,0,23.08,23.08h8.49a23.07,23.07,0,0,0,23.07-23.08V331.34A23.07,23.07,0,0,0,691.68,308.26Z" transform="translate(-323.41 -192.08)"/><circle class="cls-13" cx="895.4" cy="535.04" r="25.59" transform="translate(-154.46 1091.49) rotate(-76.72)"/><path class="cls-14" d="M799.8,617.65h0a27.32,27.32,0,0,1-27.32-27.32V476.22A27.32,27.32,0,0,1,799.8,448.9h0a27.32,27.32,0,0,1,27.32,27.32V590.33A27.32,27.32,0,0,1,799.8,617.65Z" transform="translate(-323.41 -192.08)"/><path class="cls-14" d="M480.34,666.66h0a27.32,27.32,0,0,0,27.32-27.32V427.21a27.32,27.32,0,0,0-27.32-27.32h0A27.32,27.32,0,0,0,453,427.21V639.34A27.32,27.32,0,0,0,480.34,666.66Z" transform="translate(-323.41 -192.08)"/><rect class="cls-14" x="14.97" y="284.45" width="54.64" height="113.5" rx="27.32"/><path class="cls-14" d="M662.25,605.51a18.94,18.94,0,0,1-18.94,19h0a18.94,18.94,0,0,1-18.95-19V454.37a18.94,18.94,0,0,1,18.95-18.95h0a18.94,18.94,0,0,1,18.94,18.95Zm28.33-299h-8.49A23.07,23.07,0,0,0,659,329.57v44.25a21.41,21.41,0,0,1-21.41,21.42h0a21.42,21.42,0,0,1-21.42-21.42V241.92c0-14.91-11.69-27.54-26.59-27.93a27.34,27.34,0,0,0-28.05,27.31V824.64c0,14.91,11.69,27.54,26.6,27.92a27.31,27.31,0,0,0,28-27.31V692.73a21.42,21.42,0,0,1,21.42-21.41h0A21.41,21.41,0,0,1,659,692.73V737a23.07,23.07,0,0,0,23.08,23.07h8.49A23.07,23.07,0,0,0,713.65,737V329.57A23.07,23.07,0,0,0,690.58,306.5Z" transform="translate(-323.41 -192.08)"/><circle class="cls-14" cx="570.89" cy="341.2" r="25.59"/><path class="cls-15" d="M798.7,615.89h0a27.32,27.32,0,0,1-27.32-27.32V474.46a27.32,27.32,0,0,1,27.32-27.32h0A27.32,27.32,0,0,1,826,474.46V588.57A27.32,27.32,0,0,1,798.7,615.89Z" transform="translate(-323.41 -192.08)"/><path class="cls-15" d="M479.24,664.9h0a27.32,27.32,0,0,0,27.32-27.32V425.45a27.32,27.32,0,0,0-27.32-27.32h0a27.32,27.32,0,0,0-27.32,27.32V637.58A27.32,27.32,0,0,0,479.24,664.9Z" transform="translate(-323.41 -192.08)"/><rect class="cls-15" x="13.87" y="282.69" width="54.64" height="113.5" rx="27.32"/><path class="cls-15" d="M661.15,603.75a19,19,0,0,1-18.94,19h0a19,19,0,0,1-19-19V452.61a18.94,18.94,0,0,1,19-18.95h0a18.94,18.94,0,0,1,18.94,18.95Zm28.33-299H681a23.07,23.07,0,0,0-23.08,23.07v44.25a21.42,21.42,0,0,1-21.41,21.42h0a21.42,21.42,0,0,1-21.42-21.42V240.16c0-14.92-11.69-27.54-26.6-27.93a27.32,27.32,0,0,0-28,27.31V822.87c0,14.92,11.69,27.55,26.6,27.93a27.31,27.31,0,0,0,28-27.31V691a21.41,21.41,0,0,1,21.42-21.41h0A21.41,21.41,0,0,1,657.91,691v44.25A23.07,23.07,0,0,0,681,758.29h8.49a23.07,23.07,0,0,0,23.07-23.07V327.81A23.07,23.07,0,0,0,689.48,304.74Z" transform="translate(-323.41 -192.08)"/><circle class="cls-15" cx="569.79" cy="339.44" r="25.59"/><path class="cls-16" d="M797.6,614.13h0a27.32,27.32,0,0,1-27.32-27.32V472.7a27.32,27.32,0,0,1,27.32-27.32h0a27.32,27.32,0,0,1,27.32,27.32V586.81A27.32,27.32,0,0,1,797.6,614.13Z" transform="translate(-323.41 -192.08)"/><path class="cls-16" d="M478.14,663.14h0a27.32,27.32,0,0,0,27.32-27.32V423.69a27.32,27.32,0,0,0-27.32-27.32h0a27.32,27.32,0,0,0-27.32,27.32V635.82A27.32,27.32,0,0,0,478.14,663.14Z" transform="translate(-323.41 -192.08)"/><rect class="cls-16" x="12.77" y="280.93" width="54.64" height="113.5" rx="27.32"/><path class="cls-16" d="M660.05,602a18.94,18.94,0,0,1-18.94,18.94h0a18.94,18.94,0,0,1-19-18.94V450.84a18.94,18.94,0,0,1,19-18.94h0a18.94,18.94,0,0,1,18.94,18.94Zm28.33-299h-8.5a23.07,23.07,0,0,0-23.07,23.07V370.3a21.41,21.41,0,0,1-21.41,21.41h0A21.41,21.41,0,0,1,614,370.3V238.4c0-14.92-11.69-27.55-26.6-27.93a27.32,27.32,0,0,0-28,27.31V821.11c0,14.92,11.69,27.55,26.6,27.93a27.31,27.31,0,0,0,28-27.31V689.21A21.41,21.41,0,0,1,635.4,667.8h0a21.41,21.41,0,0,1,21.41,21.41v44.25a23.07,23.07,0,0,0,23.07,23.07h8.5a23.07,23.07,0,0,0,23.07-23.07V326.05A23.07,23.07,0,0,0,688.38,303Z" transform="translate(-323.41 -192.08)"/><circle class="cls-16" cx="892.1" cy="529.75" r="25.59" transform="translate(-151.86 1084.2) rotate(-76.72)"/><path class="cls-17" d="M796.49,612.37h0a27.32,27.32,0,0,1-27.32-27.32V470.94a27.32,27.32,0,0,1,27.32-27.32h0a27.32,27.32,0,0,1,27.32,27.32V585.05A27.32,27.32,0,0,1,796.49,612.37Z" transform="translate(-323.41 -192.08)"/><path class="cls-17" d="M477,661.38h0a27.32,27.32,0,0,0,27.32-27.32V421.93A27.32,27.32,0,0,0,477,394.61h0a27.32,27.32,0,0,0-27.32,27.32V634.06A27.32,27.32,0,0,0,477,661.38Z" transform="translate(-323.41 -192.08)"/><rect class="cls-17" x="11.67" y="279.17" width="54.64" height="113.5" rx="27.32"/><path class="cls-17" d="M659,600.23a18.94,18.94,0,0,1-19,18.94h0a18.94,18.94,0,0,1-18.94-18.94V449.08A18.94,18.94,0,0,1,640,430.14h0a18.94,18.94,0,0,1,19,18.94Zm28.33-299h-8.5a23.07,23.07,0,0,0-23.07,23.07v44.25A21.42,21.42,0,0,1,634.3,390h0a21.42,21.42,0,0,1-21.42-21.41V236.63c0-14.91-11.69-27.54-26.6-27.92a27.31,27.31,0,0,0-28,27.31V819.35c0,14.91,11.69,27.54,26.6,27.93a27.32,27.32,0,0,0,28-27.31V687.45A21.42,21.42,0,0,1,634.3,666h0a21.42,21.42,0,0,1,21.41,21.42V731.7a23.07,23.07,0,0,0,23.07,23.07h8.5a23.07,23.07,0,0,0,23.07-23.07V324.29A23.07,23.07,0,0,0,687.28,301.22Z" transform="translate(-323.41 -192.08)"/><circle class="cls-17" cx="567.58" cy="335.92" r="25.59"/><path class="cls-18" d="M795.39,610.61h0a27.32,27.32,0,0,1-27.32-27.32V469.18a27.32,27.32,0,0,1,27.32-27.32h0a27.32,27.32,0,0,1,27.32,27.32V583.29A27.32,27.32,0,0,1,795.39,610.61Z" transform="translate(-323.41 -192.08)"/><path class="cls-18" d="M475.94,659.61h0a27.32,27.32,0,0,0,27.32-27.32V420.17a27.32,27.32,0,0,0-27.32-27.32h0a27.32,27.32,0,0,0-27.32,27.32V632.29A27.32,27.32,0,0,0,475.94,659.61Z" transform="translate(-323.41 -192.08)"/><rect class="cls-18" x="10.57" y="277.41" width="54.64" height="113.5" rx="27.32"/><path class="cls-18" d="M657.85,598.47a18.94,18.94,0,0,1-19,18.94h0A18.94,18.94,0,0,1,620,598.47V447.32a18.94,18.94,0,0,1,18.94-18.94h0a18.94,18.94,0,0,1,19,18.94Zm28.33-299h-8.5a23.07,23.07,0,0,0-23.07,23.08v44.25a21.42,21.42,0,0,1-21.42,21.41h0a21.42,21.42,0,0,1-21.41-21.41V234.87c0-14.91-11.69-27.54-26.6-27.92a27.31,27.31,0,0,0-28,27.31V817.59c0,14.91,11.69,27.54,26.6,27.93a27.33,27.33,0,0,0,28-27.31V685.69a21.42,21.42,0,0,1,21.41-21.42h0a21.42,21.42,0,0,1,21.42,21.42v44.25A23.07,23.07,0,0,0,677.68,753h8.5a23.07,23.07,0,0,0,23.07-23.07V322.53A23.07,23.07,0,0,0,686.18,299.45Z" transform="translate(-323.41 -192.08)"/><circle class="cls-18" cx="889.9" cy="526.23" r="25.59" transform="translate(-150.13 1079.34) rotate(-76.72)"/><path class="cls-19" d="M794.29,608.84h0A27.32,27.32,0,0,1,767,581.52V467.42a27.32,27.32,0,0,1,27.32-27.32h0a27.32,27.32,0,0,1,27.32,27.32v114.1A27.32,27.32,0,0,1,794.29,608.84Z" transform="translate(-323.41 -192.08)"/><path class="cls-19" d="M474.84,657.85h0a27.32,27.32,0,0,0,27.32-27.32V418.41a27.32,27.32,0,0,0-27.32-27.32h0a27.32,27.32,0,0,0-27.32,27.32V630.53A27.32,27.32,0,0,0,474.84,657.85Z" transform="translate(-323.41 -192.08)"/><rect class="cls-19" x="9.47" y="275.65" width="54.64" height="113.5" rx="27.32"/><path class="cls-19" d="M656.75,596.7a18.94,18.94,0,0,1-19,18.95h0a18.94,18.94,0,0,1-18.94-18.95V445.56a19,19,0,0,1,18.94-18.95h0a19,19,0,0,1,19,18.95Zm28.32-299h-8.49a23.07,23.07,0,0,0-23.07,23.08V365a21.42,21.42,0,0,1-21.42,21.41h0A21.42,21.42,0,0,1,610.68,365V233.11c0-14.91-11.69-27.54-26.6-27.92a27.31,27.31,0,0,0-28,27.31V815.83c0,14.91,11.69,27.54,26.6,27.92a27.31,27.31,0,0,0,28-27.31V683.93a21.42,21.42,0,0,1,21.41-21.42h0a21.42,21.42,0,0,1,21.42,21.42v44.24a23.07,23.07,0,0,0,23.07,23.08h8.49a23.08,23.08,0,0,0,23.08-23.08V320.77A23.08,23.08,0,0,0,685.07,297.69Z" transform="translate(-323.41 -192.08)"/><circle class="cls-19" cx="888.8" cy="524.47" r="25.59" transform="translate(-149.26 1076.92) rotate(-76.72)"/><path class="cls-20" d="M793.19,607.08h0a27.32,27.32,0,0,1-27.32-27.32V465.65a27.32,27.32,0,0,1,27.32-27.32h0a27.32,27.32,0,0,1,27.32,27.32V579.76A27.32,27.32,0,0,1,793.19,607.08Z" transform="translate(-323.41 -192.08)"/><path class="cls-20" d="M473.74,656.09h0a27.32,27.32,0,0,0,27.32-27.32V416.65a27.32,27.32,0,0,0-27.32-27.32h0a27.32,27.32,0,0,0-27.32,27.32V628.77A27.32,27.32,0,0,0,473.74,656.09Z" transform="translate(-323.41 -192.08)"/><rect class="cls-20" x="8.37" y="273.88" width="54.64" height="113.5" rx="27.32"/><path class="cls-20" d="M655.65,594.94a18.94,18.94,0,0,1-18.95,18.95h0a18.94,18.94,0,0,1-18.94-18.95V443.8a19,19,0,0,1,18.94-18.95h0a19,19,0,0,1,18.95,18.95Zm28.32-299h-8.49A23.07,23.07,0,0,0,652.41,319v44.24A21.42,21.42,0,0,1,631,384.67h0a21.42,21.42,0,0,1-21.41-21.42V231.35c0-14.91-11.69-27.54-26.6-27.93a27.33,27.33,0,0,0-28,27.31V814.07c0,14.91,11.69,27.54,26.6,27.92a27.32,27.32,0,0,0,28-27.31V682.16A21.42,21.42,0,0,1,631,660.75h0a21.42,21.42,0,0,1,21.42,21.41v44.25a23.07,23.07,0,0,0,23.07,23.08H684a23.08,23.08,0,0,0,23.08-23.08V319A23.08,23.08,0,0,0,684,295.93Z" transform="translate(-323.41 -192.08)"/><circle class="cls-20" cx="564.28" cy="330.63" r="25.59"/><path class="cls-21" d="M792.09,605.32h0A27.32,27.32,0,0,1,764.77,578V463.89a27.32,27.32,0,0,1,27.32-27.32h0a27.32,27.32,0,0,1,27.32,27.32V578A27.32,27.32,0,0,1,792.09,605.32Z" transform="translate(-323.41 -192.08)"/><path class="cls-21" d="M472.64,654.33h0A27.32,27.32,0,0,0,500,627V414.88a27.33,27.33,0,0,0-27.32-27.32h0a27.32,27.32,0,0,0-27.32,27.32V627A27.32,27.32,0,0,0,472.64,654.33Z" transform="translate(-323.41 -192.08)"/><rect class="cls-21" x="7.27" y="272.12" width="54.64" height="113.5" rx="27.32"/><path class="cls-21" d="M654.55,593.18a19,19,0,0,1-18.95,19h0a18.94,18.94,0,0,1-18.94-19V442a18.94,18.94,0,0,1,18.94-19h0a19,19,0,0,1,18.95,19Zm28.32-299h-8.49a23.07,23.07,0,0,0-23.07,23.07v44.25a21.42,21.42,0,0,1-21.42,21.42h0a21.41,21.41,0,0,1-21.41-21.42V229.59c0-14.91-11.69-27.54-26.6-27.93a27.33,27.33,0,0,0-28,27.31V812.31c0,14.91,11.69,27.54,26.6,27.92a27.32,27.32,0,0,0,28-27.31V680.4A21.41,21.41,0,0,1,629.89,659h0a21.42,21.42,0,0,1,21.42,21.41v44.25a23.07,23.07,0,0,0,23.07,23.07h8.49A23.07,23.07,0,0,0,706,724.65V317.24A23.07,23.07,0,0,0,682.87,294.17Z" transform="translate(-323.41 -192.08)"/><circle class="cls-21" cx="886.59" cy="520.95" r="25.59" transform="translate(-147.53 1072.06) rotate(-76.72)"/><path class="cls-22" d="M791,603.56h0a27.32,27.32,0,0,1-27.32-27.32V462.13A27.32,27.32,0,0,1,791,434.81h0a27.32,27.32,0,0,1,27.32,27.32V576.24A27.32,27.32,0,0,1,791,603.56Z" transform="translate(-323.41 -192.08)"/><path class="cls-22" d="M471.53,652.57h0a27.32,27.32,0,0,0,27.32-27.32V413.12a27.32,27.32,0,0,0-27.32-27.32h0a27.32,27.32,0,0,0-27.32,27.32V625.25A27.32,27.32,0,0,0,471.53,652.57Z" transform="translate(-323.41 -192.08)"/><rect class="cls-22" x="6.17" y="270.36" width="54.64" height="113.5" rx="27.32"/><path class="cls-22" d="M653.45,591.42a19,19,0,0,1-19,19h0a19,19,0,0,1-19-19V440.28a19,19,0,0,1,19-18.95h0a19,19,0,0,1,19,18.95Zm28.32-299h-8.49a23.07,23.07,0,0,0-23.07,23.07v44.25a21.42,21.42,0,0,1-21.42,21.42h0a21.41,21.41,0,0,1-21.41-21.42V227.83c0-14.92-11.69-27.54-26.6-27.93a27.31,27.31,0,0,0-28,27.31V810.54c0,14.92,11.69,27.55,26.6,27.93a27.32,27.32,0,0,0,28-27.31V678.64a21.4,21.4,0,0,1,21.41-21.41h0a21.41,21.41,0,0,1,21.42,21.41v44.25A23.07,23.07,0,0,0,673.28,746h8.49a23.07,23.07,0,0,0,23.08-23.07V315.48A23.07,23.07,0,0,0,681.77,292.41Z" transform="translate(-323.41 -192.08)"/><circle class="cls-22" cx="885.49" cy="519.19" r="25.59" transform="translate(-146.66 1069.63) rotate(-76.72)"/><path class="cls-23" d="M789.89,601.8h0a27.32,27.32,0,0,1-27.32-27.32V460.37a27.32,27.32,0,0,1,27.32-27.32h0a27.32,27.32,0,0,1,27.32,27.32V574.48A27.32,27.32,0,0,1,789.89,601.8Z" transform="translate(-323.41 -192.08)"/><path class="cls-23" d="M470.43,650.81h0a27.32,27.32,0,0,0,27.32-27.32V411.36A27.32,27.32,0,0,0,470.43,384h0a27.32,27.32,0,0,0-27.32,27.32V623.49A27.32,27.32,0,0,0,470.43,650.81Z" transform="translate(-323.41 -192.08)"/><rect class="cls-23" x="5.06" y="268.6" width="54.64" height="113.5" rx="27.32"/><path class="cls-23" d="M652.35,589.66a19,19,0,0,1-19,18.94h0a19,19,0,0,1-18.95-18.94V438.51a19,19,0,0,1,18.95-18.94h0a19,19,0,0,1,19,18.94Zm28.32-299h-8.49a23.07,23.07,0,0,0-23.08,23.07V358a21.4,21.4,0,0,1-21.41,21.41h0A21.4,21.4,0,0,1,606.28,358V226.07c0-14.92-11.7-27.55-26.6-27.93a27.31,27.31,0,0,0-28,27.31V808.78c0,14.92,11.69,27.54,26.59,27.93a27.32,27.32,0,0,0,28-27.31V676.88a21.4,21.4,0,0,1,21.41-21.41h0a21.4,21.4,0,0,1,21.41,21.41v44.25a23.07,23.07,0,0,0,23.08,23.07h8.49a23.07,23.07,0,0,0,23.07-23.07V313.72A23.07,23.07,0,0,0,680.67,290.65Z" transform="translate(-323.41 -192.08)"/><circle class="cls-23" cx="560.98" cy="325.35" r="25.59"/><path d="M788.79,600h0a27.32,27.32,0,0,1-27.32-27.32V458.61a27.32,27.32,0,0,1,27.32-27.32h0a27.32,27.32,0,0,1,27.32,27.32V572.72A27.32,27.32,0,0,1,788.79,600Z" transform="translate(-323.41 -192.08)"/><path d="M469.33,649.05h0a27.32,27.32,0,0,0,27.32-27.32V409.6a27.32,27.32,0,0,0-27.32-27.32h0A27.32,27.32,0,0,0,442,409.6V621.73A27.32,27.32,0,0,0,469.33,649.05Z" transform="translate(-323.41 -192.08)"/><rect x="327.38" y="458.91" width="54.64" height="113.5" rx="27.32" transform="translate(385.98 839.25) rotate(180)"/><path d="M651.24,587.9a18.94,18.94,0,0,1-18.94,18.94h0a19,19,0,0,1-18.95-18.94V436.75a19,19,0,0,1,18.95-18.94h0a18.94,18.94,0,0,1,18.94,18.94Zm28.33-299h-8.49A23.07,23.07,0,0,0,648,312v44.25a21.41,21.41,0,0,1-21.41,21.41h0a21.42,21.42,0,0,1-21.42-21.41V224.3c0-14.91-11.69-27.54-26.59-27.92a27.32,27.32,0,0,0-28.05,27.31V807c0,14.91,11.7,27.54,26.6,27.93a27.33,27.33,0,0,0,28-27.31V675.12a21.42,21.42,0,0,1,21.42-21.42h0A21.41,21.41,0,0,1,648,675.12v44.25a23.07,23.07,0,0,0,23.08,23.07h8.49a23.07,23.07,0,0,0,23.07-23.07V312A23.07,23.07,0,0,0,679.57,288.89Z" transform="translate(-323.41 -192.08)"/><circle cx="883.29" cy="515.66" r="25.59" transform="translate(-144.93 1064.77) rotate(-76.72)"/></g><path class="cls-24" d="M784.82,595.74h0a27.32,27.32,0,0,1-27.32-27.32V454.31A27.33,27.33,0,0,1,784.82,427h0a27.32,27.32,0,0,1,27.32,27.32V568.42A27.32,27.32,0,0,1,784.82,595.74Z" transform="translate(-323.41 -192.08)"/><path class="cls-25" d="M465.37,644.75h0a27.32,27.32,0,0,0,27.32-27.32V405.31A27.32,27.32,0,0,0,465.37,378h0a27.32,27.32,0,0,0-27.32,27.32V617.43A27.32,27.32,0,0,0,465.37,644.75Z" transform="translate(-323.41 -192.08)"/><rect class="cls-26" x="323.41" y="454.62" width="54.64" height="113.5" rx="27.32" transform="translate(378.05 830.66) rotate(180)"/><path class="cls-27" d="M675.61,284.59h-8.5A23.07,23.07,0,0,0,644,307.67v44.24a21.42,21.42,0,0,1-21.41,21.42h0a21.42,21.42,0,0,1-21.42-21.42V220c0-14.91-11.69-27.54-26.6-27.93a27.33,27.33,0,0,0-28,27.32V802.73c0,14.91,11.69,27.54,26.6,27.92a27.31,27.31,0,0,0,28-27.31V670.82a21.42,21.42,0,0,1,21.42-21.41h0A21.42,21.42,0,0,1,644,670.82v44.25a23.07,23.07,0,0,0,23.07,23.08h8.5a23.07,23.07,0,0,0,23.07-23.08V307.67A23.07,23.07,0,0,0,675.61,284.59Zm-28.33,299a18.94,18.94,0,0,1-18.94,18.95h0a18.94,18.94,0,0,1-19-18.95V432.46a19,19,0,0,1,19-18.95h0a19,19,0,0,1,18.94,18.95Z" transform="translate(-323.41 -192.08)"/><circle class="cls-28" cx="879.33" cy="511.37" r="25.59" transform="translate(-427.46 579.48) rotate(-45)"/></g><g id="Text"><text class="cls-29" transform="translate(7.12 790.26)">SONG SPHERE</text></g></g></svg>